<svg xmlns="http://www.w3.org/2000/svg" xmlns:xlink="http://www.w3.org/1999/xlink" width="1920" zoomAndPan="magnify" viewBox="0 0 1440 809.999993" height="1080" preserveAspectRatio="xMidYMid meet" version="1.0"><defs><clipPath id="cefcee925e"><path d="M 543.671875 377 L 574 377 L 574 438 L 543.671875 438 Z M 543.671875 377 " clip-rule="nonzero"/></clipPath><clipPath id="c9dd6a3d91"><path d="M 865 377 L 896.171875 377 L 896.171875 438 L 865 438 Z M 865 377 " clip-rule="nonzero"/></clipPath></defs><path fill="#133273" d="M 773.496094 325.445312 L 665.910156 325.445312 C 643.730469 325.445312 623.535156 334.53125 608.898438 349.175781 C 594.257812 363.820312 585.15625 384.023438 585.15625 406.234375 C 585.15625 428.445312 594.257812 448.625 608.898438 463.292969 C 623.535156 477.9375 643.730469 487.027344 665.910156 487.027344 L 692.984375 487.027344 C 700.367188 487.027344 706.363281 493.023438 706.363281 500.414062 L 706.363281 528.953125 L 746.796875 491.238281 C 749.246094 488.65625 752.707031 487.027344 756.542969 487.027344 L 773.496094 487.027344 C 795.695312 487.027344 815.890625 477.9375 830.53125 463.292969 C 845.167969 448.625 854.273438 428.445312 854.273438 406.234375 C 854.273438 384.023438 845.167969 363.820312 830.53125 349.175781 C 815.890625 334.53125 795.695312 325.445312 773.496094 325.445312 Z M 773.496094 325.445312 " fill-opacity="1" fill-rule="nonzero"/><path fill="#00ffcc" d="M 668.644531 305.199219 L 770.785156 305.199219 C 798.847656 305.199219 824.378906 316.6875 842.855469 335.171875 C 861.351562 353.675781 872.835938 379.195312 872.835938 407.292969 C 872.835938 435.394531 861.351562 460.910156 842.855469 479.417969 C 824.378906 497.921875 798.847656 509.390625 770.785156 509.390625 L 759.628906 509.390625 L 702.96875 562.214844 C 697.855469 566.976562 689.832031 566.691406 685.066406 561.574219 C 682.796875 559.125 681.671875 556.039062 681.671875 552.929688 L 681.652344 552.929688 L 681.652344 509.390625 L 668.644531 509.390625 C 640.578125 509.390625 615.050781 497.921875 596.550781 479.417969 C 578.078125 460.910156 566.589844 435.394531 566.589844 407.292969 C 566.589844 379.195312 578.078125 353.675781 596.550781 335.171875 C 615.050781 316.6875 640.578125 305.199219 668.644531 305.199219 Z M 770.785156 330.582031 L 668.644531 330.582031 C 647.566406 330.582031 628.410156 339.230469 614.519531 353.125 C 600.609375 367.042969 591.988281 386.207031 591.988281 407.292969 C 591.988281 428.378906 600.609375 447.546875 614.519531 461.460938 C 628.410156 475.359375 647.566406 484.003906 668.644531 484.003906 L 694.351562 484.003906 C 701.359375 484.003906 707.027344 489.671875 707.027344 496.6875 L 707.027344 523.792969 L 745.429688 487.996094 C 747.746094 485.527344 751.03125 484.003906 754.667969 484.003906 L 770.785156 484.003906 C 791.839844 484.003906 811.019531 475.359375 824.90625 461.464844 C 838.820312 447.546875 847.4375 428.378906 847.4375 407.292969 C 847.4375 386.207031 838.820312 367.042969 824.90625 353.125 C 811.019531 339.230469 791.839844 330.582031 770.785156 330.582031 Z M 770.785156 330.582031 " fill-opacity="1" fill-rule="nonzero"/><path fill="#00ffcc" d="M 711.082031 266.820312 L 728.34375 266.820312 L 728.34375 319.203125 L 711.082031 319.203125 Z M 711.082031 266.820312 " fill-opacity="1" fill-rule="evenodd"/><path fill="#00ffcc" d="M 719.703125 243 C 732.203125 243 742.324219 253.125 742.324219 265.628906 C 742.324219 278.113281 732.203125 288.238281 719.703125 288.238281 C 707.226562 288.238281 697.105469 278.113281 697.105469 265.628906 C 697.105469 253.125 707.226562 243 719.703125 243 Z M 719.703125 243 " fill-opacity="1" fill-rule="evenodd"/><g clip-path="url(#cefcee925e)"><path fill="#00ffcc" d="M 573.933594 437.488281 C 557.289062 437.488281 543.773438 423.96875 543.773438 407.292969 C 543.773438 390.621094 557.289062 377.121094 573.933594 377.121094 Z M 573.933594 437.488281 " fill-opacity="1" fill-rule="evenodd"/></g><g clip-path="url(#c9dd6a3d91)"><path fill="#00ffcc" d="M 865.890625 437.488281 C 882.558594 437.488281 896.074219 423.96875 896.074219 407.292969 C 896.074219 390.621094 882.558594 377.121094 865.890625 377.121094 Z M 865.890625 437.488281 " fill-opacity="1" fill-rule="evenodd"/></g><path fill="#00ffcc" d="M 678.367188 371.167969 C 685.75 371.167969 691.792969 377.210938 691.792969 384.578125 L 691.792969 425.226562 C 691.792969 432.59375 685.75 438.636719 678.367188 438.636719 C 670.980469 438.636719 664.960938 432.59375 664.960938 425.226562 L 664.960938 384.578125 C 664.960938 377.210938 670.980469 371.167969 678.367188 371.167969 Z M 678.367188 371.167969 " fill-opacity="1" fill-rule="evenodd"/><path fill="#00ffcc" d="M 761.0625 371.167969 C 768.425781 371.167969 774.464844 377.210938 774.464844 384.578125 L 774.464844 425.226562 C 774.464844 432.59375 768.425781 438.636719 761.0625 438.636719 C 753.675781 438.636719 747.636719 432.59375 747.636719 425.226562 L 747.636719 384.578125 C 747.636719 377.210938 753.675781 371.167969 761.0625 371.167969 Z M 761.0625 371.167969 " fill-opacity="1" fill-rule="evenodd"/></svg>